REM DIRINDEX 1\2\5,1\2\6,1\2\7,1\2\8,1\3\9,1\3\10,1\3\11,1\4\12,1\4\13,1\4\14,1\4\15,1\4\16
REM DIRNAME folder01,folder02,folder03,folder04,folder05,folder06,folder07,folder08,folder09,folder10,folder11,folder12,folder13,folder14,folder15,folder16
TITLE ""
FILE "1200_2_sec03_0993_1009.mp3" MP3
  TRACK 01 AUDIO
    TITLE "0:"
    INDEX 01 00:00:00
  TRACK 02 AUDIO
    TITLE "10:cjc034_02046"
    INDEX 01 00:00:11
  TRACK 03 AUDIO
    TITLE "0:"
    INDEX 01 00:01:24
  TRACK 04 AUDIO
    TITLE "9:cjc034_02047"
    INDEX 01 00:01:28
  TRACK 05 AUDIO
    TITLE "0:"
    INDEX 01 00:02:43
  TRACK 06 AUDIO
    TITLE "10:cjc034_02048"
    INDEX 01 00:03:27
  TRACK 07 AUDIO
    TITLE "0:"
    INDEX 01 00:04:50
  TRACK 08 AUDIO
    TITLE "9:cjc034_02049"
    INDEX 01 00:04:56
  TRACK 09 AUDIO
    TITLE "0:"
    INDEX 01 00:05:69
  TRACK 10 AUDIO
    TITLE "10:cjc034_02050"
    INDEX 01 00:06:47
  TRACK 11 AUDIO
    TITLE "0:"
    INDEX 01 00:07:66
  TRACK 12 AUDIO
    TITLE "9:cjc034_02051"
    INDEX 01 00:07:74
  TRACK 13 AUDIO
    TITLE "0:"
    INDEX 01 00:09:06
  TRACK 14 AUDIO
    TITLE "10:cjc034_02052"
    INDEX 01 00:09:65
  TRACK 15 AUDIO
    TITLE "0:"
    INDEX 01 00:10:61
  TRACK 16 AUDIO
    TITLE "9:cjc034_02053"
    INDEX 01 00:10:68
  TRACK 17 AUDIO
    TITLE "0:"
    INDEX 01 00:12:01
  TRACK 18 AUDIO
    TITLE "11:cjc034_02054"
    INDEX 01 00:13:51
  TRACK 19 AUDIO
    TITLE "0:"
    INDEX 01 00:19:34
  TRACK 20 AUDIO
    TITLE "10:cjc034_02055"
    INDEX 01 00:20:39
  TRACK 21 AUDIO
    TITLE "0:"
    INDEX 01 00:21:37
  TRACK 22 AUDIO
    TITLE "9:cjc034_02056"
    INDEX 01 00:21:45
  TRACK 23 AUDIO
    TITLE "0:"
    INDEX 01 00:22:62
  TRACK 24 AUDIO
    TITLE "10:cjc034_02057"
    INDEX 01 00:23:42
  TRACK 25 AUDIO
    TITLE "0:"
    INDEX 01 00:25:01
  TRACK 26 AUDIO
    TITLE "9:cjc034_02058"
    INDEX 01 00:25:03
  TRACK 27 AUDIO
    TITLE "0:"
    INDEX 01 00:26:28
  TRACK 28 AUDIO
    TITLE "10:cjc034_02059"
    INDEX 01 00:27:12
  TRACK 29 AUDIO
    TITLE "0:"
    INDEX 01 00:28:43
  TRACK 30 AUDIO
    TITLE "9:cjc034_02060"
    INDEX 01 00:28:47
  TRACK 31 AUDIO
    TITLE "0:"
    INDEX 01 00:29:60
  TRACK 32 AUDIO
    TITLE "10:cjc034_02061"
    INDEX 01 00:30:46
  TRACK 33 AUDIO
    TITLE "0:"
    INDEX 01 00:31:67
  TRACK 34 AUDIO
    TITLE "9:cjc034_02062"
    INDEX 01 00:32:00
  TRACK 35 AUDIO
    TITLE "0:"
    INDEX 01 00:33:07
  TRACK 36 AUDIO
    TITLE "10:cjc034_02063"
    INDEX 01 00:33:66
  TRACK 37 AUDIO
    TITLE "0:"
    INDEX 01 00:36:07
  TRACK 38 AUDIO
    TITLE "9:cjc034_02064"
    INDEX 01 00:36:09
  TRACK 39 AUDIO
    TITLE "0:"
    INDEX 01 00:37:28
  TRACK 40 AUDIO
    TITLE "10:cjc034_02065"
    INDEX 01 00:38:12
  TRACK 41 AUDIO
    TITLE "0:"
    INDEX 01 00:39:17
  TRACK 42 AUDIO
    TITLE "9:cjc034_02066"
    INDEX 01 00:39:21
  TRACK 43 AUDIO
    TITLE "0:"
    INDEX 01 00:40:26
  TRACK 44 AUDIO
    TITLE "11:cjc034_02067"
    INDEX 01 00:42:00
  TRACK 45 AUDIO
    TITLE "0:"
    INDEX 01 00:46:66
  TRACK 46 AUDIO
    TITLE "10:cjc034_02068"
    INDEX 01 00:47:70
  TRACK 47 AUDIO
    TITLE "0:"
    INDEX 01 00:49:27
  TRACK 48 AUDIO
    TITLE "9:cjc034_02069"
    INDEX 01 00:49:29
  TRACK 49 AUDIO
    TITLE "0:"
    INDEX 01 00:50:50
  TRACK 50 AUDIO
    TITLE "10:cjc034_02070"
    INDEX 01 00:51:34
  TRACK 51 AUDIO
    TITLE "0:"
    INDEX 01 00:52:51
  TRACK 52 AUDIO
    TITLE "9:cjc034_02071"
    INDEX 01 00:52:59
  TRACK 53 AUDIO
    TITLE "0:"
    INDEX 01 00:53:72
  TRACK 54 AUDIO
    TITLE "10:cjc034_02072"
    INDEX 01 00:54:58
  TRACK 55 AUDIO
    TITLE "0:"
    INDEX 01 00:57:09
  TRACK 56 AUDIO
    TITLE "9:cjc034_02073"
    INDEX 01 00:57:19
  TRACK 57 AUDIO
    TITLE "0:"
    INDEX 01 00:58:34
  TRACK 58 AUDIO
    TITLE "10:cjc034_02074"
    INDEX 01 00:59:16
  TRACK 59 AUDIO
    TITLE "0:"
    INDEX 01 01:00:45
  TRACK 60 AUDIO
    TITLE "9:cjc034_02075"
    INDEX 01 01:00:51
  TRACK 61 AUDIO
    TITLE "0:"
    INDEX 01 01:01:66
  TRACK 62 AUDIO
    TITLE "10:cjc034_02076"
    INDEX 01 01:02:48
  TRACK 63 AUDIO
    TITLE "0:"
    INDEX 01 01:03:61
  TRACK 64 AUDIO
    TITLE "9:cjc034_02077"
    INDEX 01 01:03:65
  TRACK 65 AUDIO
    TITLE "0:"
    INDEX 01 01:05:24
  TRACK 66 AUDIO
    TITLE "10:cjc034_02078"
    INDEX 01 01:06:14
  TRACK 67 AUDIO
    TITLE "0:"
    INDEX 01 01:07:12
  TRACK 68 AUDIO
    TITLE "9:cjc034_02079"
    INDEX 01 01:07:15
  TRACK 69 AUDIO
    TITLE "0:"
    INDEX 01 01:08:52
  TRACK 70 AUDIO
    TITLE "10:cjc034_02080"
    INDEX 01 01:09:34
  TRACK 71 AUDIO
    TITLE "0:"
    INDEX 01 01:11:25
  TRACK 72 AUDIO
    TITLE "9:cjc034_02081"
    INDEX 01 01:11:27
  TRACK 73 AUDIO
    TITLE "0:"
    INDEX 01 01:12:40
